<svg xmlns="http://www.w3.org/2000/svg" xmlns:xlink="http://www.w3.org/1999/xlink" viewBox="-21 -21 42 42" width="420" height="420">
	<path fill="#008" fill-rule="evenodd" d="M0-20a20,20 0 0 0 0,40a20,20 0 0 0 0-40zM0-17.5 a17.5,17.5 0 0 0 0,35a17.5,17.5 0 0 0 0-35z"/>
	<circle r="3.5" fill="#008"/>
	<g id="d">
		<g id="c">
			<g id="b">
				<g id="a">
					<circle r="0.875" fill="#008" transform="rotate(7.5) translate(17.5)"/>
					<path fill="#008" d="M 0,17.5 0.6,7 C 0.6,7 0,2 0,2 0,2 -0.6,7 -0.6,7 L 0,17.5 z"/>
				</g>
				<use xlink:href="#a" transform="rotate(15)"/>
			</g>
			<use xlink:href="#b" transform="rotate(30)"/>
		</g>
		<use xlink:href="#c" transform="rotate(60)"/>
	</g>
	<use xlink:href="#d" transform="rotate(120)"/>
	<use xlink:href="#d" transform="rotate(-120)"/>
</svg>